<svg id="pingnew" xmlns="http://www.w3.org/2000/svg" viewBox="0 0 776.93 265.86"><defs><style>.cls-1{fill:#ee7929;}.cls-2{fill:#e52129;}.cls-3{fill:#acce22;}.cls-4{fill:#00a2e9;}</style></defs><title>P!NG</title><path class="cls-1" d="M3545.86,1595.3c-2.1-8.63-6.87-15.25-14.87-19.35a37.72,37.72,0,0,0-15.35-3.85c-8.73-.48-17.24.93-25.64,3.2a173.9,173.9,0,0,0-16.47,5.6,5.37,5.37,0,0,0-3,.85c-4.3,1.86-8.56,3.83-12.74,6-24.47,13-46.38,29.57-66.34,48.75q-7.12,7.18-14.3,14.3c-3.35,3.89-6.86,7.64-10.17,11.57-14.24,16.94-26.76,35-36.12,55.16a143,143,0,0,0-8.12,21.58c-1.46,5.2-1.78,10.51-2.78,15.86v7.43c1,0.19.46,0.5,0.52,0.81,0.4,2.18.69,4.4,1.25,6.56,2.17,8.38,6.8,14.92,14.6,19,6.67,3.45,13.9,4.41,21.27,4.1a93,93,0,0,0,23.46-4.31c14.68-4.52,28.34-11.27,41.46-19.17a295.78,295.78,0,0,0,38.44-27.84,2.32,2.32,0,0,1,1.52-1c1.09-.23,1.6-1.26,2.47-1.78a43.9,43.9,0,0,1,4.12-3.67c4-3.8,8.1-7.45,11.91-11.43q1-1,2-2c1-.82,1.6-2,2.87-2.45a20.74,20.74,0,0,1,2.74-3.27c4-4.38,8-8.73,11.83-13.25a278.75,278.75,0,0,0,27.34-38.23c2-3.44,4-6.92,5.77-10.48,0.26-.56.53-1.12,0.83-1.66s0.68-1.32,1-2c0.78-1.79,2-3.42,2.11-5.45,0.26-.69.49-1.39,0.78-2.07,4.18-10,7.48-20.13,8.53-31A49.32,49.32,0,0,0,3545.86,1595.3Zm-14.12,26.89a86.46,86.46,0,0,1-5.59,19.38l-5.17,11.31a47.68,47.68,0,0,1-3.79,7.41,238.19,238.19,0,0,1-31.61,42.95,4.29,4.29,0,0,1-1.25,1.09L3482,1707a112.24,112.24,0,0,1-9.3,9.35l-10,9.26a17.63,17.63,0,0,1-3.71,3.12l-15.29,12.2a178.68,178.68,0,0,1-15.32,10.43,164.79,164.79,0,0,1-35.69,17.1,81.41,81.41,0,0,1-22.31,4.29,38.57,38.57,0,0,1-13.54-1.77c-9.15-3-14.65-9.35-16.75-18.66-1.45-6.44-1-12.91.17-19.34,1.95-10.29,5.78-19.92,10.48-29.24,7.56-15,17.15-28.64,27.92-41.49a51.17,51.17,0,0,1,4.17-4.72l13-13.77a49,49,0,0,1,5.21-5.26,261.9,261.9,0,0,1,45.08-34.6,177.87,177.87,0,0,1,18.17-9.61,4.64,4.64,0,0,1,1.72-.63l15.21-5.66a31.64,31.64,0,0,1,7.25-2.09,60.06,60.06,0,0,1,17.87-1.54c7.17,0.52,13.71,2.62,18.88,7.94a25.52,25.52,0,0,1,6.59,13.27A46.47,46.47,0,0,1,3531.73,1622.19Z" transform="translate(-3320 -1527)"/><path class="cls-2" d="M3494,1739.7q-1.14-6.33-2.6-12.59l-1.83-7-5.24-15.75a249.77,249.77,0,0,0-12.93-29.94,190.92,190.92,0,0,0-13.09-22,9.17,9.17,0,0,0-3.43-4.57c-0.5-.54-1-1.07-1.5-1.63a46.15,46.15,0,0,0-7.19-6.94,14.48,14.48,0,0,0-5.42-2.74,5.25,5.25,0,0,0-5.73,2.09,10,10,0,0,0-1.48,3,20.59,20.59,0,0,0-1,5.82c-0.07,2.53-.06,5.07-0.09,7.6l0.6,5.88a4.55,4.55,0,0,0,0,2.55c1.57,10.4,4.49,20.46,7.71,30.44,3,8.2,6,16.37,9.62,24.31,1.28,2.78,2.65,5.52,3.94,8.3l8.25,14a111.4,111.4,0,0,0,7.94,12.08,67.77,67.77,0,0,0,7.65,8.83,25.1,25.1,0,0,0,6.24,4.61c4.43,2.16,7.71.85,9.43-3.74a15.66,15.66,0,0,0,.49-1.6,28,28,0,0,0,.79-5.87A85.09,85.09,0,0,0,3494,1739.7Zm-5.07,5.71a18.82,18.82,0,0,1-1.44,7,4.42,4.42,0,0,1-6.08,2.56,16,16,0,0,1-5.39-3.53,63.36,63.36,0,0,1-9.53-11.32l-8.11-13.32c-1-2-2.27-3.9-3.14-6-3.3-6.95-6.4-14-9.1-21.2a3.88,3.88,0,0,0-1.08-1.87,3.35,3.35,0,0,1-.26-0.47,176.14,176.14,0,0,1-7.31-25.86,69.62,69.62,0,0,1-1.51-11.76c0.86-1.86.32-3.83,0.44-5.75a13.74,13.74,0,0,1,1.6-6.56c1.4-2.49,3.23-3.15,5.89-2.16a16.21,16.21,0,0,1,5.74,3.93c1.6,1.34,2.79,3.11,4.57,4.26a42,42,0,0,1,4.66,6c7.33,10.65,13,22.18,17.94,34.09,1.85,4.46,3.4,9,5.14,13.51l3.69,14.59c0.51,2.35,1.06,4.7,1.56,7.05,0.49,3,1.1,6,1.33,9A38.86,38.86,0,0,1,3488.92,1745.41Z" transform="translate(-3320 -1527)"/><path class="cls-3" d="M3548.84,1689.6l-4-12.51a5.25,5.25,0,0,0-.51-2.15,174.48,174.48,0,0,0-9.46-19.69l-8.68-13.69c-0.3-.39-0.63-0.75-0.9-1.16a287.59,287.59,0,0,0-22.61-29.83,301.57,301.57,0,0,0-21.45-22.57l-7.65-7c-0.4-.38-0.79-0.84-1.2-1.21a281.61,281.61,0,0,0-41-30.66c-12-7.28-24.44-13.55-37.86-17.73-6.8-2.12-13.7-3.84-20.87-4.06-0.37,0-.75-0.36-1-0.36h-4.83c-0.95,0-1.94.2-2.92,0.25-8.88.45-16.26,3.93-21.78,11-5,6.36-6.41,13.88-6.59,21.65a69.23,69.23,0,0,0,2.22,17.63c3,12.55,8,24.29,14.1,35.62a259.12,259.12,0,0,0,24.19,36.68l6.77,7.68c4.42,5,8.82,10.13,13.47,15l5.38,5.51a307.24,307.24,0,0,0,40.05,34.1,106.4,106.4,0,0,0,9.09,6.06l4.22,3a21.29,21.29,0,0,0,7.68,4.48l14,7.08a102.47,102.47,0,0,0,12.34,5.15l5.72,2a88.55,88.55,0,0,0,17.73,3.76,49.9,49.9,0,0,0,17.32-.91c8.34-2.13,14.75-6.76,18.65-14.59a38.29,38.29,0,0,0,3.62-17.46A75.66,75.66,0,0,0,3548.84,1689.6ZM3539,1711c-1.72,9.65-7.87,15.95-17.48,17.87a40.35,40.35,0,0,1-13.48.13,99,99,0,0,1-13.72-3.25l-11.62-4.25-10.07-5.14a197.28,197.28,0,0,1-25.78-17.41l-5.61-5c-0.57-.46-1-1-1.57-1.53a261.79,261.79,0,0,1-21.72-21.23l-6.89-7-7.09-9c-2.89-3.7-5.44-7.64-8.2-11.42l-5-9.2c-4.94-8.75-9.38-17.71-12.13-27.43-2.19-7.73-3.66-15.54-2.1-23.59,1.34-6.93,4.77-12.37,11.34-15.57,6-2.92,12.3-3,18.67-2.28,11,1.28,21.05,5.42,30.81,10.35a153.61,153.61,0,0,1,18.31,10.94l2.31,1.52,8.77,5.9a246.67,246.67,0,0,1,33.89,31.93,176.59,176.59,0,0,1,11.44,14.14l5,6.82c1.27,1.86,2.39,3.82,3.81,5.57l7.49,13.08c2,3.87,3.86,7.84,5.54,11.88,1.44,3.47,2.52,7.07,3.76,10.61l1.63,11.07C3539.38,1703.34,3539.71,1707.18,3539,1711Z" transform="translate(-3320 -1527)"/><path class="cls-4" d="M3558,1663.86c-1-5.3-4-9.36-8.23-12.62a41.12,41.12,0,0,0-12.31-6.34l-13.93-3.29c-3.77-.62-7.6-0.71-11.39-1.13a5.78,5.78,0,0,1-.74.07,179,179,0,0,0-34.58,2.51,204.9,204.9,0,0,0-21.92,4.79l-22.44,7.17c-3.2,1.28-6.43,2.5-9.59,3.87-4,1.71-7.85,3.55-11.77,5.34a1.9,1.9,0,0,0-1.74.4c-2.63,1.51-5.39,2.78-8,4.36-1.77,1.08-3.83,1.77-5.14,3.53-2.89,2-5.83,4-8.68,6-7.34,5.35-14.11,11.31-19.59,18.61a39.55,39.55,0,0,0-6.56,12.41,20.79,20.79,0,0,0,.61,14.88c2.08,4.64,5.63,7.94,9.87,10.55a51,51,0,0,0,14.59,5.84,103.88,103.88,0,0,0,20.39,2.73,156.85,156.85,0,0,0,25.57-1.12c3.74-.44,7.47-1,11.21-1.52l27.41-6.6c1.89-.49,3.68-1.28,5.6-1.64,3.64-.56,7-2,10.35-3.4l9.38-3.69a200.73,200.73,0,0,0,18.78-9.22,137.14,137.14,0,0,0,23.35-16c0.45-.39,1.1-0.64,1.09-1.39,3.15-3.06,6.27-6.15,9.23-9.41,0.36-.5.72-1,1.09-1.49a42.88,42.88,0,0,0,7.29-13.26A22.12,22.12,0,0,0,3558,1663.86Zm-13.46,12.87a36.58,36.58,0,0,1-7.06,11.49,63.47,63.47,0,0,1-9.79,9.58c-10.58,8.63-22.45,15.08-34.93,20.49l-9,3.58-29.62,8.45c-12.23,2.42-24.51,3.93-37,3.38a97.11,97.11,0,0,1-16.91-2.16,39.67,39.67,0,0,1-14.73-6.37c-5.6-4-9.23-10.9-7-18.9a32.77,32.77,0,0,1,5.67-11.19,79.5,79.5,0,0,1,17.63-16.62,99.42,99.42,0,0,1,13.91-8.72,162,162,0,0,1,15.85-7.72l26.84-9.58c0.47-.14.94-0.31,1.42-0.43a176.19,176.19,0,0,1,37.48-5.7,105.37,105.37,0,0,1,20,1l19.27,6.81a23.54,23.54,0,0,1,5.53,4.61C3546.47,1664.21,3546.74,1670.29,3544.52,1676.73Z" transform="translate(-3320 -1527)"/><path class="cls-4" d="M3454.23,1653.4c-3.59,1.17-7.18,2.31-10.75,3.53-2.52.86-5,1.83-7.49,2.75" transform="translate(-3320 -1527)"/><path d="M3714,1736.41c-0.93-2-1.81-2.42-3.67-2.06-0.9.17-1,.95-1.29,1.57-2.6,5.44-5.16,10.89-7.75,16.33a4.08,4.08,0,0,1-1.37,2.11l-8.73-9.56c1.68-1.83,3.25-3.45,4.73-5.16s3.2-3,4.29-5c-3.21-.86-5.08.18-6.56,2.11a71,71,0,0,1-4.87,5.38,1.45,1.45,0,0,1-1.53.85l-0.15-8.48c-0.63,0-1-.09-1.34-0.09-2.69,0-2.69,0-2.69,2.49q0,8.26,0,16.52a3.2,3.2,0,0,0,.35,2.15,6.54,6.54,0,0,0,1,.13c2.54-.07,2.85.61,2.73-2.5-0.08-2.13,0-4.23.06-6.88a65.34,65.34,0,0,1,4.76,5.34,8.81,8.81,0,0,0,8.69,4.17c2.49-.17,4.3-0.55,4.86-2.93a1.54,1.54,0,0,1,1.63-1.46c2.78,0.06,5.54,0,8.3,0a1.52,1.52,0,0,1,1.54,1c0.23,0.53.55,1,.73,1.57a2,2,0,0,0,2.32,1.66,10.06,10.06,0,0,1,1.6,0c1.11,0.05,1.25-.35.73-1.45C3719.59,1748.3,3716.83,1742.35,3714,1736.41Zm-6.15,11.43,3.44-7.37a53.63,53.63,0,0,1,3.46,7.26A45.33,45.33,0,0,1,3707.88,1747.84Z" transform="translate(-3320 -1527)"/><path d="M3856.93,1734.6c-4.32-.52-4.32-0.52-6,2.28-1.5,2.57-3,5.16-4.61,7.9-1.86-2.74-3.12-5.29-4.55-7.83s-1.41-2.38-4.07-2.47c-1.51-.05-2.1.47-2.06,2.06,0.12,5.88,0,12.54.06,18.4,0,0.53-.13,3.06.6,3.06h1.16c2.28,0,2.28-1.16,2.29-3.31,0-2,0-4.87,0-6.85,0-1.78,0-3.69,0-5.47,0.16,0,.32,0,0.48,0,1.92,3.36,3.85,6.68,6,10.36l6.31-10.6,0.34,0.15c0,4.35.05,8.7,0.08,13.31,0.84,0.06,1.2.1,1.55,0.1,2.8,0,2.4.29,2.45-2.24,0.06-2.82,0-5.68,0-8.52C3856.94,1741.47,3856.94,1738.05,3856.93,1734.6Z" transform="translate(-3320 -1527)"/><path d="M3741.14,1734.36h-1.3c-2.36,0-2.37,0-2.38,2.3,0,3.61,0,7.22,0,10.83l-0.41,0-7.17-11c-1.46-2.23-1.46-2.23-3.76-2.22a10.3,10.3,0,0,1-1.07,0,0.94,0.94,0,0,0-1.23,1.08c0,6.29,0,12.57,0,18.85a1.18,1.18,0,0,0,1.29,1.41c2.56,0.21,2.73.11,2.75-2.49,0-3.92,0-7.85.06-11.88a8.69,8.69,0,0,1,2.14,2.77c2.18,3.32,4.43,6.63,6.41,10,1.1,1.89,2.27,1.44,3.58,1.58,1.56,0.17,1.5-.8,1.49-1.9,0-5.78,0-11.53,0-17.31A2.51,2.51,0,0,0,3741.14,1734.36Z" transform="translate(-3320 -1527)"/><path d="M3777,1746.66c0-4,0-8,0-12.07-4-.45-4-0.45-4,3,0,0.95.06,1.91,0,2.84-0.13,2.35.24,4.84-.25,7.37-2.65-4.06-5.13-7.88-7.63-11.69-1.3-2-1.31-1.87-4.51-1.82-1.63,0-1.27,1.15-1.27,2.09,0,5.67,0,11.36,0,17a2.44,2.44,0,0,0,.37,2.07,3.91,3.91,0,0,0,.79.14c2.78-.08,2.94.62,2.87-2.62-0.08-3.88,0-7.73,0-11.62,1.12,0.54,1.41,1.54,1.93,2.33,2.19,3.32,4.3,6.67,6.46,10,1.31,2,1.3,1.87,3.66,2,1.69,0.07,1.59-1,1.59-2.09C3777,1751.31,3777,1749,3777,1746.66Z" transform="translate(-3320 -1527)"/><path d="M4007.53,1734.67a4.58,4.58,0,0,0-2.06-.32c-1.6-.24-2.17.36-2,1.93a26.31,26.31,0,0,1,0,4.39c-0.11,2.28.26,4.69-.21,6.93a3.81,3.81,0,0,1-.48-0.47l-6.64-10.23c-1.68-2.59-1.66-2.5-4.47-2.57-1.42,0-1.9.43-1.89,1.77,0.06,6.12,0,12.22,0,18.33a5.32,5.32,0,0,0,.21,1c3.87,0.49,3.88.49,3.87-2.84,0-1.12,0-2.25,0-3.37,0-2.57,0-5.14.06-7.85a7.33,7.33,0,0,1,2,2.58c2.28,3.49,4.54,7,6.74,10.51,1.08,1.73,2.28,1,3.46,1.2s1.42-.46,1.37-1.48c-0.08-1.48,0-2.92,0-4.38C4007.55,1744.75,4007.54,1739.68,4007.53,1734.67Z" transform="translate(-3320 -1527)"/><path d="M3803.9,1734c-5,.85-8.19,3.69-9.45,8.41-0.26,1-.38,2-0.56,3l0,0c0.11,0.53.22,1.06,0.34,1.6a11.23,11.23,0,0,0,10.83,8.93,11.09,11.09,0,0,0,11.6-11A11.21,11.21,0,0,0,3803.9,1734Zm1.67,18.06a7.11,7.11,0,1,1,7-7.25A7.17,7.17,0,0,1,3805.57,1752.09Z" transform="translate(-3320 -1527)"/><path d="M4021.59,1733.94c-6.94-.66-13,5.45-12.15,12.2a11.31,11.31,0,0,0,22.53-1.54A11.28,11.28,0,0,0,4021.59,1733.94Zm-1.91,18.11a7.17,7.17,0,0,1-5.75-4.88,7.09,7.09,0,1,1,13.64-3.84A7.12,7.12,0,0,1,4019.68,1752.05Z" transform="translate(-3320 -1527)"/><path d="M4057.44,1733.93a11.05,11.05,0,1,0,12.17,11A11.34,11.34,0,0,0,4057.44,1733.93Zm0.9,18.16a7.09,7.09,0,0,1-7.18-7.32c0.25-3.73,2.27-6.12,6-6.78a7,7,0,0,1,8.21,6.68A7.16,7.16,0,0,1,4058.34,1752.09Z" transform="translate(-3320 -1527)"/><path d="M4090.81,1744.59c-2.13,0-4.18,0-6.22,0s-2.06.09-2,2.17a1.24,1.24,0,0,0,1.57,1.4,7.12,7.12,0,0,1,1.07,0c0.51,0,1.16-.22,1.53.36a1.38,1.38,0,0,1-.13,1.89,7.09,7.09,0,0,1-4.54,1.68,7.18,7.18,0,0,1-7.36-6.68,6.67,6.67,0,0,1,4.73-7.09c2.82-1,5.84-.63,8.64,2.42,0.93-1,2-1.68,2.54-2.87a11.42,11.42,0,0,0-20.06,7.68,11.16,11.16,0,0,0,10.84,10.42,11.34,11.34,0,0,0,8.91-3.51,1.91,1.91,0,0,0,.66-1.5C4090.88,1748.88,4091.2,1746.89,4090.81,1744.59Z" transform="translate(-3320 -1527)"/><path d="M3928.65,1749.37a3,3,0,0,0,.32-2.7,10.1,10.1,0,0,1-2.51,0c-1.15-.3-0.63,1.31-1.74,1l-2.33-2.73c1.22-1.11,2.76-1.79,3.49-3.24a4.69,4.69,0,0,0-.56-5.24,6.16,6.16,0,0,0-5.36-2.35c-5.23.34-6.8,4.5-3.63,9.77-0.68.61-1.4,1.2-2.06,1.86a5.27,5.27,0,0,0-1.54,4.45,6.52,6.52,0,0,0,5.45,5.69c2,0.3,4.14.39,5.55-.68s2.37-1,3.72.76l2.43-2.49C3928.23,1752,3927.77,1750.77,3928.65,1749.37Zm-9.73-11.46a2.64,2.64,0,0,1,3-.1,1.56,1.56,0,0,1,.85,1.08c0.33,1.27-1.56,3.53-2.69,3.18a3.09,3.09,0,0,1-1.65-1.67A1.77,1.77,0,0,1,3918.92,1737.91Zm-1.48,13.24c-1.27-1.5-.79-3.12,1.41-4.55a44.43,44.43,0,0,1,4,4.42C3920.78,1752.66,3918.73,1752.68,3917.44,1751.15Z" transform="translate(-3320 -1527)"/><path d="M3829.68,1746c2.06-1.23,3.37-2.75,3.59-5,0.35-3.66-2.32-6.49-6.23-6.61-2.25-.07-4.45.07-6.7,0-1.46-.07-1.85.46-1.83,1.84,0.09,5.87,0,11.7,0,17.56a1.79,1.79,0,0,0,.54,1.92h1.42c2.08,0,2.09,0,2.11-2.08,0-1.46,0-2.93,0-4.39,0-2,1.46-2.65,3.51-1.59a4.09,4.09,0,0,1,2,2.18c0.32,0.79.53,1.6,0.79,2.4,1.25,3.84.46,3.48,4.68,3.46a3.22,3.22,0,0,0,.84-0.27,29.62,29.62,0,0,1-1.76-4.77A8.42,8.42,0,0,0,3829.68,1746Zm-3.61-2.07a7.79,7.79,0,0,1-3.27-.13c-0.43-2-.09-3.74-0.19-5.61a0.77,0.77,0,0,1,.14-0.45c0.35-.53,3.63-0.54,4.6,0a3.23,3.23,0,0,1,1.76,3A3.09,3.09,0,0,1,3826.07,1744Z" transform="translate(-3320 -1527)"/><path d="M3871.8,1736a2.38,2.38,0,0,0-2.54-1.71,2.07,2.07,0,0,0-2.19,1.47c-2.82,6-5.68,12-8.51,18.08-0.22.47-.74,0.84-0.32,1.62,2.62,0.61,4.62.32,5.13-2.26a4.11,4.11,0,0,1,.19-0.44,1.93,1.93,0,0,1,2.24-1.4c2.34,0.1,4.66.07,7,0a2.27,2.27,0,0,1,2.58,1.63c1.2,2.74,1.33,2.72,4.11,2.65a1.44,1.44,0,0,0,1.2-.3,3.18,3.18,0,0,0-.58-1.81C3877.32,1747.72,3874.47,1741.89,3871.8,1736Zm-5.86,11.84a49.09,49.09,0,0,1,3.54-7.33l3.32,7.14C3870.68,1748.1,3868.51,1747.84,3865.94,1747.86Z" transform="translate(-3320 -1527)"/><path d="M3988.82,1734.55c-3-.44-5.14-0.35-6.46,1.68a30.4,30.4,0,0,1-3.45,3.83c-1,1.1-2.07,2.18-3.41,3.6,0-3.37-.05-6.2-0.08-9.13-0.53-.07-0.89-0.16-1.24-0.17-2.85-.09-2.86-0.09-2.86,2.62,0,5.43,0,10.85,0,16.29,0,0.7-.31,1.45.4,2.28a5.79,5.79,0,0,0,.84.11c3.11-.07,2.83.52,2.89-2.61a41.36,41.36,0,0,1,.16-6.31,5.63,5.63,0,0,1,1.7,1.55c1.85,2,3.7,4,5.5,6.11a3.09,3.09,0,0,0,2.74,1.29c1.08-.09,2.21,0,3.8,0l-9.88-10.86Z" transform="translate(-3320 -1527)"/><path d="M3961,1737.7c2.25,0.08,4.45-.07,6.7.06,1.46,0.08,2-.45,1.84-1.82-0.06-.44-0.09-0.87-0.15-1.57h-11.81c-2.12,0-2.13,0-2.13,2q0,8.77,0,17.54a2.13,2.13,0,0,0,.53,1.73c4.07,0,8.24,0,12.43,0,0.88,0,1.16.09,1.1-.73s0-1.94-.46-1.94h-9.5c-0.09-1,0-3.41-.07-4.79-0.09-1.18.34-1.85,1.58-1.8,2.25,0.1,4.45-.14,6.69-0.07,1.17,0,1.83.22,1.63-1-0.08-.53.2,0.69-0.15-1.31h-9.42c-0.73-2-.18-3.16-0.33-4.37A1.53,1.53,0,0,1,3961,1737.7Z" transform="translate(-3320 -1527)"/><path d="M3680.85,1753h-9.52c0-1,0-3.71,0-5.18a1.12,1.12,0,0,1,1.18-1.38c2.06,0,4.11-.07,6.15-0.1,3.19,0,2.4.79,2.48-2.18,0-.13-0.29-0.16-0.41-0.16h-9.41c-0.14-2,.09-3,0-4.15s0.31-2,1.57-1.9c2.16,0.1,4.29-.09,6.43-0.1s2.1-.09,2-2.19c0-.34-0.1-0.72-0.18-1.25l-12.89,0a0.85,0.85,0,0,0-1,1.05c0,6.62,0,13.22,0,20.23h11.07c3.11,0,3.12.51,3-2.51A0.39,0.39,0,0,0,3680.85,1753Z" transform="translate(-3320 -1527)"/><path d="M3891.2,1743.79c-1.26-.55-2.57-1-3.8-1.61-1.89-1-2.3-2.51-1-3.64s3.08-1.16,5-.08c1.08,0.62,1.68.62,2.22-.12s1.46-1.13,1.67-2.11c-5.38-3.78-11.9-2.8-13.52,1.94-1.13,3.3.51,6.27,4.42,8,1.17,0.51,2.38.89,3.54,1.46,2.18,1.08,2.66,2.82,1.07,3.91s-3.47.86-5.39-.25c-1.4-.81-2.2-0.86-2.9.15a15.39,15.39,0,0,1-1.56,1.65c5.47,4.46,13.19,3.65,14.84-1.35C3896.83,1748.34,3895.25,1745.56,3891.2,1743.79Z" transform="translate(-3320 -1527)"/><path d="M3659,1734.39c-0.72,0-1.44,0-2.15,0-1.85.07-4.33-.72-5.42,0.29s-0.35,3.54-.37,5.4c-0.05,5.05,0,10.13,0,15.4,4.13,0.37,4.13.37,4.11-3.15s0-3.42,3.47-3.6c4.3-.22,7.31-3.22,7.31-7.27A7.12,7.12,0,0,0,3659,1734.39Zm-0.82,11.12a5.42,5.42,0,0,1-2.8-.2c-0.43-2.47-.09-4.79-0.18-7.19a0.42,0.42,0,0,1,.19-0.4,6.34,6.34,0,0,1,4.22.19,3.66,3.66,0,0,1,2.18,2.94A4,4,0,0,1,3658.16,1745.51Z" transform="translate(-3320 -1527)"/><path d="M3784,1744c-0.87-2-.25-2.95-0.4-4.08a1.36,1.36,0,0,1,1.46-1.76c2.25,0.07,4.45-.17,6.7-0.08,1.38,0.05,2.14-.35,1.88-1.85a4,4,0,0,0-.33-1.83c-3.83,0-7.73,0-11.62,0-2.1,0-2.11,0-2.11,2q0,8.76,0,17.53a1.87,1.87,0,0,0,.5,1.63c0.36,0,.81.08,1.24,0.09,2.3,0,2.31,0,2.32-2.11,0-2,.07-3.94,0-5.93a1.16,1.16,0,0,1,1.43-1.44c2.24,0.07,4.45,0,6.7,0,0.88,0,1.56.31,2.09-.19-0.58-.75.2-1-0.85-2h-9Z" transform="translate(-3320 -1527)"/><path d="M4047.88,1753h-9.74c0-5-.1-12.1-0.12-17.75-0.53-.06-0.92-0.33-1.27-0.34-2.93-.09-2.95-0.16-2.95,2.7,0,5.5,0,11.78,0,17.28,0,0.59.07,3.12,0.48,3.12h13a1.15,1.15,0,0,0,1-1.27C4048.12,1755.7,4048.28,1753,4047.88,1753Z" transform="translate(-3320 -1527)"/><path d="M3954.19,1737h-12.81c-3.05,0-3.06.13-2.83,3.22a1.68,1.68,0,0,0,.37.78h5.43c-0.55,1-.12,6.16-0.12,9.84,0,1.63-.13,2.08-0.1,3.72a0.9,0.9,0,0,0,.49,1.07,6,6,0,0,0,3.18.05c0.66-.12.53-0.87,0.53-1.46,0-4.3,0-8.51,0-12.81,0-3.12,0-2.92,3.18-2.92,2.93,0,3,.9,2.76-2.07A3.46,3.46,0,0,0,3954.19,1737Z" transform="translate(-3320 -1527)"/><path d="M3754.62,1734.37c-2.05,0-2.07,0-2.08,2q0,7.74,0,15.48a14.67,14.67,0,0,0,.14,3.56c3.95,0.44,3.94.44,3.95-3,0-.17,0-0.34,0-0.51q0-8.63,0-17.26A3.91,3.91,0,0,0,3754.62,1734.37Z" transform="translate(-3320 -1527)"/><path d="M4096.93,1751.33c0-5.57,0-11.15,0-16.83-0.63-.05-1.08-0.11-1.52-0.12-2.61-.06-2.61-0.05-2.6,2.57q0,8.39,0,16.78a2,2,0,0,0,.32,1.76c3.8,0.38,3.8.38,3.78-3.13C4096.93,1752,4096.93,1751.68,4096.93,1751.33Z" transform="translate(-3320 -1527)"/><path d="M3900.19,1734.38c-3.22.05-2.58-.38-2.6,2.55,0,5.49,0,11,0,16.49a2.75,2.75,0,0,0,.33,2.05,7.06,7.06,0,0,0,2.42.2,1.07,1.07,0,0,0,1.4-1.22c0-6.62,0-13.23-.05-19.94C3901.08,1734.45,3900.62,1734.37,3900.19,1734.38Z" transform="translate(-3320 -1527)"/><path d="M3936.86,1570h-24.75c-3.52,0-3.68-1.5-3.68,1.85,0,29.56-.12,57.88-0.14,87.43a20.93,20.93,0,0,1-.25,5.43c-0.57-.83-1-1.51-1.45-2.16q-13.09-20.13-26.17-40.29-17.22-26.51-34.42-53c-0.86-1.33-1.51-2.28-3.33-2.25-9.62.11-19.27,0.08-28.94,0-1.59,0-2,.57-2,2,0.11,3.13,0,6.2,0,9.3q0,68,0,136c0,0.9-.33,1.8.31,2.8a4.35,4.35,0,0,0,2.19.24q11.8,0,23.58,0c2.46,0,2.48,0,2.48-2.51q0-47.82,0-95.65c0-2.11,0-4.22.06-6.44a5.32,5.32,0,0,1,2,2.43q32.12,49.86,64.21,99.74c1.64,2.54.94,2.5,4.24,2.5,7.77,0,15.56.08,23.32,0.05,2.47,0,2.74.78,2.66-2.49,0-.26.08-0.26,0.08-0.52,0-48,.08-95,0.05-143C3937,1570.57,3937.06,1570,3936.86,1570Z" transform="translate(-3320 -1527)"/><path d="M4093.79,1643.18a7.07,7.07,0,0,0-.28-3.36,2.41,2.41,0,0,0-1.63-.29c-18.32,0-36.63,0-55,0-1.53,0-2,.44-2,2,0.09,6.92,0,13.8,0,20.69a3.48,3.48,0,0,0,.35,1.91,5.45,5.45,0,0,0,2.65.27c6,0,12,0,18,0,2.59,0,5.18,0,7.78,0,2.05,0,2.12.1,2.13,2.17,0,3.54-.06,7.05,0,10.6a3.31,3.31,0,0,1-1.34,2.9,60.66,60.66,0,0,1-16.36,9.4,50.94,50.94,0,0,1-24.85,2.71,51.56,51.56,0,0,1-42.85-37,45.88,45.88,0,0,1-.68-23c3.77-16.64,13.62-28.29,28.7-35.49,9.79-4.67,20.88-6.08,33.33-3.76a46.53,46.53,0,0,1,27,15.27c0.94,1.06,1.83,2.17,2.74,3.25,1.48,1.76,1.51,1.78,2.8.46q8.48-8.61,16.93-17.25c0.22-.22.43-0.46,0.65-0.67,0.53-.52.54-1.11-0.14-1.85s-1.33-1.53-2-2.27c-10.65-11.15-23-18.79-37-22.67a79.08,79.08,0,0,0-41.49-.72c-28.89,7.46-48.24,24.82-57.66,51.87-5.28,15.16-5.68,31.73.64,49.76a75.07,75.07,0,0,0,12.46,22.21,78.53,78.53,0,0,0,39.42,26.47,81.81,81.81,0,0,0,86.24-25.1,6.29,6.29,0,0,0,1.52-4.43C4093.79,1672.49,4093.82,1657.85,4093.79,1643.18Z" transform="translate(-3320 -1527)"/><path d="M3717.52,1666.53c18.93-5.51,30.84-17.74,35.93-36.2a48.08,48.08,0,0,0-2.59-33.06,48.73,48.73,0,0,0-21.81-23.71,50.89,50.89,0,0,0-24.33-6.41c-10-.09-20,0-30,0-7.68,0-15.35,0-23.05,0-1.39,0-2.14.31-1.88,1.79a5.75,5.75,0,0,1,0,1q0,69,0,138a74.13,74.13,0,0,0,.16,9.11,6.41,6.41,0,0,0,2.79.31q11.79,0,23.58,0c2.63,0,2.62,0,2.62-2.63q0-21.84,0-43.68c0-3.1-.41-2.65,2.82-2.67,7.4,0,14.83,0,22.23,0A49,49,0,0,0,3717.52,1666.53Zm-16.71-20.66h-21.73a76.32,76.32,0,0,1-.15-8.8q0-22.88,0-45.74c0-2.19,0-2.2,2.23-2.21,5.89,0,11.78,0,17.68,0a26.13,26.13,0,0,1,10.7,2.43,28,28,0,0,1,16.24,21.07c2.49,16.69-9.24,31-23.94,33.11A7.24,7.24,0,0,1,3700.81,1645.87Z" transform="translate(-3320 -1527)"/><path d="M3767.64,1678.87c0.09,1.34.58,1.75,1.88,1.87,5.65,0.52,11.31,1.13,17,1.65,2.54,0.23,2.52.16,2.81-2.2,1.18-9.73,2-19.58,2.61-29.49,1.65-27,1.57-54.39,1.42-81.83a2.19,2.19,0,0,0-.3-1.55,5.3,5.3,0,0,0-2.16-.19h-24.39c-2.29,0-2.29,0-2.3,2.39,0,28.26.18,56.57,1.79,85.21C3766.43,1662.75,3767.13,1670.83,3767.64,1678.87Z" transform="translate(-3320 -1527)"/><path d="M3764.16,1717a4.88,4.88,0,0,0,.89.29c8.94,0,17.87,0,26.81.06a1.22,1.22,0,0,0,1.48-1.45c-0.05-3,0-6,0-9.06,0-4.82,0-9.64,0-14.47,0-1.7-.13-1.84-1.58-2-8.93-.82-17.85-1.61-26.78-2.46-1-.1-1.38.22-1.34,1.2,0.1,2.44.1,4.85,0.15,7.27C3763.9,1703.28,3764,1710.11,3764.16,1717Z" transform="translate(-3320 -1527)"/></svg>